<?xml version="1.0" encoding="UTF-8"?>
<svg width="700pt" height="700pt" version="1.1" viewBox="0 0 700 700" xmlns="http://www.w3.org/2000/svg">
 <g fill-rule="evenodd">
  <path d="m367.5 280v-233.33c0-9.6602-7.8398-17.5-17.5-17.5s-17.5 7.8398-17.5 17.5v233.33c0 9.6602 7.8398 17.5 17.5 17.5s17.5-7.8398 17.5-17.5z"/>
  <path d="m382.99 82.25-29.098 29.098c-2.2617 2.2617-5.8789 2.2852-8.168 0.070313l-31.5-30.637c-6.9297-6.7422-18.012-6.5781-24.734 0.35156-6.7422 6.9297-6.5781 18.012 0.32812 24.734l31.477 30.613c16.008 15.609 41.535 15.422 57.352-0.375 0 0 29.098-29.098 29.098-29.098 6.8125-6.8359 6.8125-17.922 0-24.758-6.8359-6.8125-17.922-6.8125-24.758 0z"/>
  <path d="m358.75 264.83-202.07-116.67c-8.3516-4.8086-19.086-1.9375-23.918 6.418-4.8086 8.3516-1.9375 19.086 6.418 23.918l202.07 116.67c8.3516 4.8086 19.086 1.9375 23.918-6.418 4.8086-8.3516 1.9375-19.086-6.418-23.918z"/>
  <path d="m195.25 152.55 10.641 39.762c0.81641 3.0781-0.98047 6.2539-4.0586 7.1172l-42.234 11.945c-9.2852 2.6367-14.699 12.32-12.062 21.605 2.6133 9.2852 12.297 14.699 21.582 12.062l42.234-11.945c21.535-6.0664 34.137-28.305 28.352-49.863 0 0.023438-10.641-39.738-10.641-39.738-2.4961-9.332-12.109-14.887-21.441-12.391-9.3086 2.4961-14.863 12.109-12.367 21.441z"/>
  <path d="m341.25 264.83-202.07 116.67c-8.3516 4.8281-11.223 15.562-6.418 23.918 4.8281 8.3516 15.562 11.223 23.918 6.418l202.07-116.67c8.3516-4.8281 11.223-15.562 6.418-23.918-4.8281-8.3516-15.562-11.223-23.918-6.418z"/>
  <path d="m162.26 350.28 39.738 10.688c3.0781 0.81641 4.9219 3.9648 4.1523 7.0469l-10.781 42.559c-2.3789 9.3555 3.2891 18.898 12.672 21.258 9.3555 2.3789 18.875-3.2891 21.258-12.672l10.781-42.559c5.4844-21.652-7.4648-43.703-29.051-49.465 0.023438 0.023437-39.715-10.641-39.715-10.641-9.332-2.5195-18.922 3.0352-21.422 12.367-2.5195 9.332 3.0352 18.922 12.367 21.422z"/>
  <path d="m332.5 280v233.33c0 9.6602 7.8398 17.5 17.5 17.5s17.5-7.8398 17.5-17.5v-233.33c0-9.6602-7.8398-17.5-17.5-17.5s-17.5 7.8398-17.5 17.5z"/>
  <path d="m317.01 477.75 29.098-29.098c2.2617-2.2617 5.8789-2.2852 8.168-0.070313l31.5 30.637c6.9297 6.7422 18.012 6.5781 24.734-0.35156 6.7422-6.9297 6.5781-18.012-0.32812-24.734l-31.477-30.613c-16.008-15.609-41.535-15.422-57.352 0.375 0 0-29.098 29.098-29.098 29.098-6.8125 6.8359-6.8125 17.922 0 24.758 6.8359 6.8125 17.922 6.8125 24.758 0z"/>
  <path d="m341.25 295.17 202.07 116.67c8.3516 4.8086 19.086 1.9375 23.918-6.418 4.8086-8.3516 1.9375-19.086-6.418-23.918l-202.07-116.67c-8.3516-4.8086-19.086-1.9375-23.918 6.418-4.8086 8.3516-1.9375 19.086 6.418 23.918z"/>
  <path d="m504.75 407.45-10.641-39.762c-0.81641-3.0781 0.98047-6.2539 4.0586-7.1172l42.234-11.945c9.2852-2.6367 14.699-12.32 12.062-21.605-2.6133-9.2852-12.297-14.699-21.582-12.062l-42.234 11.945c-21.535 6.0664-34.137 28.305-28.352 49.863 0-0.023438 10.641 39.738 10.641 39.738 2.4961 9.332 12.109 14.887 21.441 12.391 9.3086-2.4961 14.863-12.109 12.367-21.441z"/>
  <path d="m358.75 295.17 202.07-116.67c8.3516-4.8281 11.223-15.562 6.418-23.918-4.8281-8.3516-15.562-11.223-23.918-6.418l-202.07 116.67c-8.3516 4.8281-11.223 15.562-6.418 23.918 4.8281 8.3516 15.562 11.223 23.918 6.418z"/>
  <path d="m537.74 209.72-39.738-10.688c-3.0781-0.81641-4.9219-3.9648-4.1523-7.0469l10.781-42.559c2.3789-9.3555-3.2891-18.898-12.672-21.258-9.3555-2.3789-18.875 3.2891-21.258 12.672l-10.781 42.559c-5.4844 21.652 7.4648 43.703 29.051 49.465-0.023438-0.023437 39.715 10.641 39.715 10.641 9.332 2.5195 18.922-3.0352 21.422-12.367 2.5195-9.332-3.0352-18.922-12.367-21.422z"/>
 </g>
</svg>
