<?xml version="1.0" encoding="UTF-8"?>
<svg width="700pt" height="700pt" version="1.1" viewBox="0 0 700 700" xmlns="http://www.w3.org/2000/svg">
 <g>
  <path d="m478 152c-48 0-89.602 27.199-112 65.602 27.199 8 48 32 48 62.398h192c-1.6016-72-57.602-128-128-128z"/>
  <path d="m222 408c48 0 89.602-27.199 112-67.199-27.199-6.3984-48-32-48-60.801h-192c1.6016 72 57.602 128 128 128z"/>
  <path d="m350 24c-70.398 1.6016-128 57.602-128 128 0 48 27.199 89.602 67.199 112 6.3984-27.199 32-48 60.801-48z"/>
  <path d="m345.2 312c22.398 1.6016 36.801-14.398 36.801-32s-14.398-32-32-32-32 14.398-32 32c0 16 12.801 28.801 27.199 32z"/>
  <path d="m478 408c0-48-27.199-89.602-67.199-112-8 27.199-32 48-60.801 48v192c70.398-1.6016 128-57.602 128-128z"/>
 </g>
</svg>
