<svg xmlns="http://www.w3.org/2000/svg" version="1.0" preserveAspectRatio="xMidYMid meet" viewBox="238.13 241.21 524.44 417.89"><g transform="translate(0.000000,1080.000000) scale(0.100000,-0.100000)" fill="#000000" stroke="none"><path d="M2573 8372 c-93 -33 -158 -99 -183 -187 -8 -29 -10 -547 -8 -1910 3 -1766 4 -1872 21 -1902 30 -55 78 -103 131 -131 l51 -27 473 -3 472 -3 0 750 c0 511 4 767 11 803 34 161 173 297 339 328 34 6 642 10 1719 10 l1667 0 16 93 c9 50 82 452 163 892 199 1083 187 1015 175 1072 -21 94 -79 165 -165 205 l-50 23 -2390 2 c-2274 2 -2393 2 -2442 -15z m2642 -291 c49 -22 93 -65 111 -108 11 -26 14 -143 14 -594 0 -626 3 -597 -70 -663 -21 -19 -56 -39 -77 -45 -53 -15 -2323 -15 -2376 0 -47 13 -102 60 -128 110 -18 36 -19 64 -19 598 0 370 4 569 11 588 15 40 67 92 114 114 38 18 91 19 1210 19 1114 0 1172 -1 1210 -19z m1866 -150 c49 -49 35 -124 -28 -150 -21 -8 -200 -11 -666 -9 l-639 3 -29 33 c-39 43 -39 84 0 123 l29 29 652 0 652 0 29 -29z m3 -328 c36 -36 36 -90 0 -127 l-27 -26 -657 0 -658 0 -26 31 c-15 17 -26 43 -26 59 0 37 43 88 78 92 15 2 311 2 658 0 l632 -2 26 -27z m-24 -308 c59 -30 68 -98 21 -146 l-29 -29 -652 0 -652 0 -29 29 c-19 19 -29 40 -29 59 0 33 32 79 64 92 11 5 304 9 649 9 541 1 632 -1 657 -14z m26 -348 c34 -40 32 -90 -5 -128 l-29 -29 -652 0 -651 0 -24 24 c-32 32 -40 69 -25 107 25 60 3 59 713 56 l649 -2 24 -28z"></path><path d="M2856 7894 c-8 -20 -8 -1008 0 -1028 6 -14 116 -16 1149 -16 1033 0 1143 2 1149 16 8 20 8 1008 0 1028 -6 14 -116 16 -1149 16 -1033 0 -1143 -2 -1149 -16z m1650 -298 c28 -28 34 -42 34 -75 0 -23 -7 -55 -15 -71 -31 -60 -31 -60 -520 -60 -489 0 -489 0 -520 60 -8 16 -15 48 -15 71 0 33 6 47 34 75 l34 34 467 0 467 0 34 -34z"></path><path d="M3877 5895 c-58 -22 -94 -52 -124 -103 l-28 -47 -3 -767 -2 -768 1498 0 c1307 0 1505 2 1549 15 66 20 143 89 171 152 11 26 37 138 57 248 75 415 225 1231 231 1258 l6 27 -1659 -1 c-1390 0 -1664 -3 -1696 -14z m1968 -337 c45 -41 55 -90 30 -142 -32 -67 -23 -66 -528 -66 -446 0 -455 0 -481 21 -39 30 -59 75 -52 114 8 39 40 83 70 95 11 5 225 9 474 9 l452 1 35 -32z"></path><!-- <path d="M0 400 l0 -400 5000 0 5000 0 0 400 0 400 -5000 0 -5000 0 0 -400zm2192 123 c23 -20 23 -57 1 -74 -15 -11 -16 -11 -5 1 27 31 11 72 -33 83 -194 -19 5 -1 6 11 0 28 -6 38 -16z m-69 -8 c-3 -9 -8 -14 -10 -11 -3 3 -2 9 215 9 16 15 13 8 -4z m-1760 -114 c22 -61 43 -108 47 -104 4 4 24 56 45 116 2159 42 107 47 107 11 0 9 -5 -42 -149 -23 -64 -44 -107 -53 -109 -15 -3 -17 0-67 143 -15 44 -31 88 -36 99 -5 13 -3 17 6 14 8 -2 32 -55 53 -117z m517 89c0 -23 4 -30 20 -30 11 0 20 -4 20 -10 0 -5 -10 -10 -21 -10 -20 0 -21 -4 -17-71 3 -55 8 -74 23 -85 23 -17 14 -29 -13 -15 -11 6 -22 25 -26 42 -10 51 -7209 4 209 6 0 10 -13 10 -30z m515 16 c25 -11 33 -19 29 -30 -7 -19 -5 -19-40 -1 -36 18 -55 19 -78 2 -28 -21 -9 -45 49 -62 87 -25 108 -74 54 -127 -29-29 -33 -30 -90 -25 -68 6 -72 8 -64 29 5 13 12 14 40 5 50 -15 100 1 100 330 16 -8 28 -25 36 -87 40 -105 51 -108 67 -14 70 53 106 133 73z m105 -16 c0-25 4 -30 25 -30 16 0 25 -6 25 -15 0 -9 -9 -15 -25 -15 -24 0 -25 -3 -25 -600 -55 2 -62 25 -72 14 -6 25 -15 25 -20 0 -18 -31 -20 -55 -4 -24 16 -25 20-25 131 0 96 3 115 15 115 10 0 15 -10 15 -30z m482 -32 l3 -62 36 32 c20 1845 32 55 32 14 0 9 -9 -21 -40 l-39 -40 42 -60 c40 -57 41 -60 20 -60 -16 0-32 14 -53 45 -16 25 -33 45 -37 45 -5 0 -8 -20 -8 -45 0 -38 -3 -45 -20 -45-19 0 -20 7 -20 130 0 122 1 130 20 130 16 0 19 -8 22 -62z m193 30 c1 -20 -2-24 -11 -17 -8 7 -14 6 -17 -3 -3 -7 -6 2 -6 20 -1 27 3 33 17 30 11 -2 17-13 17 -30z m-44 -35 c13 -16 12 -17 -3 -4 -17 13 -22 21 -14 21 2 0 10 -8 17-17z m-1502 -19 c12 -15 21 -40 21 -55 0 -29 0 -29 -65 -29 -72 0 -83 -12 -44-51 17 -17 30 -20 65 -16 43 4 59 -5 28 -17 -45 -17 -106 3 -123 41 -45 98 56206 118 127z m191 16 c17 -11 10 -13 -40 -10 -47 2 -75 -28 -75 -80 0 -55 26-80 82 -80 27 0 42 -4 38 -10 -9 -15 -78 -12 -102 5 -50 35 -50 135 0 170 2417 74 20 97 5z m265 -13 c20 -16 28 -35 32 -69 5 -42 3 -50 -25 -78 -41 -41-83 -41 -124 0 -28 28 -30 36 -25 78 9 82 84 119 142 69z m85 7 c0 -14 2 -1422 0 24 17 38 20 38 9 0 -5 -14 -16 -30 -25 -29 -17 -30 -19 -30 -93 0 -43 -4-75 -10 -75 -6 0 -10 40 -10 100 0 60 4 100 10 100 6 0 10 -7 10 -16z m537 1c30 -21 44 -75 32 -120 -25 -88 -143 -88 -168 0 -20 72 20 135 84 135 17 0 40-7 52 -15z m198 -5 c0 -10 -8 -14 -27 -12 -58 6 -91 -42 -67 -100 11 -28 36-40 74 -35 12 1 20 -4 20 -13 0 -19 -48 -25 -85 -10 -63 26 -68 148 -6 179 3115 91 9 91 -9z m5374 -83 c8 -26 17 -47 21 -47 4 0 13 21 21 47 8 25 20 48 2751 8 2 4 -19 -12 -63 -36 -99 -36 -99 -72 0 -16 44 -20 65 -12 63 7 -3 19 -2627 -51z m638 38 c2 -6 -9 -11 -23 -10 -38 0 -40 -20 -5 -35 69 -28 36 -101-33 -74 -27 10 -18 22 15 20 43 -2 49 22 10 35 -34 12 -49 43 -30 65 13 16 6015 66 -1z m333 -20 c0 -35 16 -47 26 -20 4 8 13 15 22 15 13 0 13 -3 -2 -19-16 -18 -16 -21 -1 -50 19 -38 8 -40 -22 -3 l-22 27 -1 -27 c0 -16 -4 -28 -10-28 -6 0 -10 30 -10 70 0 40 4 70 10 70 6 0 10 -16 10 -35z m580 32 c0 -4 -34-104 -45 -136 -3 -8 -8 -11 -11 -8 -8 7 38 147 48 147 4 0 8 -2 8 -3z m98 -9c21 -21 13 -45 -25 -77 l-38 -30 43 -1 c23 0 42 -4 42 -10 0 -5 -22 -10 -50-10 -62 0 -65 15 -14 63 42 40 39 62 -8 53 -26 -5 -29 -4 -18 9 15 18 51 2068 3z m109 0 c14 -23 12 -106 -2 -118 -33 -27 -86 8 -70 46 4 11 7 27 6 37 -538 47 64 66 35z m121 0 c21 -21 13 -45 -25 -77 l-38 -30 43 -1 c23 0 42 -4 42-10 0 -5 -22 -10 -50 -10 -62 0 -65 15 -14 63 42 40 39 62 -8 53 -26 -5 -29-4 -18 9 15 18 51 20 68 3z m110 0 c21 -21 13 -45 -25 -77 l-38 -30 43 -1 c230 42 -4 42 -10 0 -5 -22 -10 -50 -10 -62 0 -65 15 -14 63 42 40 39 62 -8 53-26 -5 -29 -4 -18 9 15 18 51 20 68 3z m104 -5 c39 -35 8 -122 -44 -123 -10 0-18 5 -18 10 0 6 9 10 20 10 10 0 24 10 31 22 10 18 9 20 -6 15 -24 -10 -5510 -55 36 0 44 38 61 72 30z m128 12 c0 -6 -60 -127 -66 -134 -2 -2 -7 -2 -101 -3 3 6 29 20 57 14 28 26 53 26 56 0 3 -13 5 -30 5 -16 0 -30 5 -30 10 0 620 10 45 10 25 0 45 -2 45 -5z m100 0 c0 -6 -60 -127 -66 -134 -2 -2 -7 -2-10 1 -3 3 6 29 20 57 14 28 26 53 26 56 0 3 -13 5 -30 5 -16 0 -30 5 -30 100 6 20 10 45 10 25 0 45 -2 45 -5z m92 -47 c2 -29 2 -61 0 -70 -5 -22 -22 -24-22 -3 0 10 -10 15 -30 15 -16 0 -30 3 -30 6 0 16 56 104 67 104 6 0 13 -2215 -52z m-2072 7 c9 -10 9 -15 1 -15 -15 0 -14 -57 2 -63 6 -2 9 -8 4 -13 -12-13 -34 18 -40 58 -7 49 8 64 33 33z m360 0 c9 -10 9 -15 1 -15 -15 0 -14 -572 -63 6 -2 9 -7 6 -11 -15 -17 -37 8 -41 47 -7 58 5 74 32 42z m-532 -7 c23-23 13 -38 -24 -38 -41 0 -44 -24 -3 -27 42 -2 44 -3 29 -13 -35 -23 -80 1-80 44 0 28 18 46 45 46 12 0 26 -5 33 -12z m109 5 c14 -6 10 -9 -17 -13 -29-4 -35 -9 -35 -30 0 -21 5 -26 33 -28 36 -4 34 -22 -3 -22 -28 0 -55 24 -5550 0 22 25 50 45 50 7 0 22 -3 32 -7z m177 -9 c21 -20 20 -43 -1 -66 -20 -22-46 -23 -67 -2 -31 30 -9 84 34 84 10 0 26 -7 34 -16z m86 6 c0 -4 -7 -10 -15-14 -9 -3 -15 -19 -15 -41 0 -19 -4 -35 -10 -35 -5 0 -10 22 -10 49 0 45 2 4925 49 14 0 25 -4 25 -8z m274 -6 c31 -30 9 -84 -34 -84 -24 0 -50 26 -50 50 024 26 50 50 50 10 0 26 -7 34 -16z m113 9 c14 -6 10 -9 -17 -13 -29 -4 -35 -9-35 -30 0 -21 6 -26 35 -30 27 -4 31 -7 17 -13 -10 -4 -25 -7 -32 -7 -20 0-45 28 -45 50 0 22 25 50 45 50 7 0 22 -3 32 -7z m258 -2 c3 -5 -9 -11 -27-13 -28 -2 -33 -7 -33 -28 0 -21 5 -26 33 -28 36 -4 34 -22 -3 -22 -28 0 -5524 -55 50 0 37 67 69 85 41z m99 -7 c21 -20 20 -43 -1 -66 -20 -22 -46 -23-67 -2 -31 30 -9 84 34 84 10 0 26 -7 34 -16z m112 5 c8 -7 14 -6 19 1 10 1642 12 49 -6 10 -25 7 -84 -4 -84 -5 0 -10 18 -10 41 0 33 -3 40 -17 37 -13 -2-19 -14 -21 -41 -4 -50 -22 -47 -22 4 0 36 -2 40 -22 37 -19 -2 -24 -10 -26-40 -5 -55 -22 -46 -22 10 0 48 0 49 32 50 18 0 38 -4 44 -9z m-326 -79 c0 -5-4 -10 -10 -10 -5 0 -10 5 -10 10 0 6 5 10 10 10 6 0 10 -4 10 -10z"/><path d="M2150 500 c0 -5 5 -10 10 -10 6 0 10 5 10 10 0 6 -4 10 -10 10 -5 0-10 -4 -10 -10z"/><path d="M536 418 c-28 -39 -21 -48 39 -48 59 0 67 9 45 51 -15 27 -64 25 -84-3z"/><path d="M986 424 c-50 -50 -21 -144 44 -144 48 0 80 50 66 104 -13 53 -75 75-110 40z"/><path d="M1616 408 c-32 -46 -8 -118 39 -118 28 0 55 34 55 70 0 36 -27 70-55 70 -13 0 -31 -10 -39 -22z"/><path d="M8992 374 c2 -11 11 -20 22 -22 13 -3 17 1 14 14 -2 11 -11 20 -2222 -13 3 -17 -1 -14 -14z"/><path d="M8984 325 c-8 -21 10 -39 30 -32 22 9 20 24 -4 37 -16 9 -22 8 -26-5z"/><path d="M9324 375 c-7 -18 3 -35 21 -35 18 0 26 15 19 34 -8 20 -33 21 -40 1z"/><path d="M9647 350 c-18 -29 -18 -30 2 -30 17 0 21 6 21 30 0 17 -1 30 -3 30-1 0 -11 -13 -20 -30z"/><path d="M7395 340 c-4 -6 5 -10 19 -10 14 0 26 5 26 10 0 6 -9 10 -19 10 -110 -23 -4 -26 -10z"/><path d="M7674 336 c-10 -26 4 -48 28 -44 17 2 23 10 23 28 0 18 -6 26 -23 28-13 2 -25 -3 -28 -12z"/><path d="M8034 336 c-10 -26 4 -48 28 -44 17 2 23 10 23 28 0 18 -6 26 -23 28-13 2 -25 -3 -28 -12z"/><path d="M8504 336 c-10 -26 4 -48 28 -44 17 2 23 10 23 28 0 18 -6 26 -23 28-13 2 -25 -3 -28 -12z"/> --></g></svg>