<?xml version="1.0" encoding="UTF-8"?>
<svg width="700pt" height="700pt" version="1.1" viewBox="0 0 700 700" xmlns="http://www.w3.org/2000/svg">
 <path d="m350.09 46.477c-64.156 0-116.8 52.648-116.8 116.8v116.62c0 64.156 52.648 116.57 116.8 116.57s116.57-52.418 116.57-116.57v-116.62c0-64.156-52.418-116.8-116.57-116.8zm-163.65 162.97c-0.80859 0.007813-1.6133 0.054688-2.4141 0.14063-5.7617 0.66797-11.062 3.4531-14.879 7.8164-3.8164 4.3633-5.8711 9.9922-5.7695 15.789v69.953c0 89.93 73.312 163.47 163.24 163.47h-46.668 0.003906c-0.74609-0.035156-1.4883-0.035156-2.2344 0-8.1992 0.58203-15.492 5.4258-19.203 12.766-3.7109 7.3359-3.293 16.082 1.1016 23.031 4.3945 6.9492 12.117 11.078 20.336 10.871h140.05c6.2773 0.14062 12.348-2.2539 16.84-6.6445 4.4883-4.3906 7.0195-10.406 7.0195-16.688s-2.5312-12.297-7.0195-16.688c-4.4922-4.3906-10.562-6.7891-16.84-6.6484h-46.668c89.93 0 163.29-73.539 163.29-163.47v-69.953c0-8.3477-4.4531-16.055-11.68-20.227-7.2266-4.1758-16.129-4.1758-23.355 0-7.2266 4.1719-11.68 11.879-11.68 20.227v69.953c0 64.707-51.867 116.76-116.57 116.76h-46.711c-64.711 0-116.57-52.051-116.57-116.76v-69.953h-0.003906c0.10938-6.3086-2.3359-12.391-6.7812-16.863-4.4492-4.4727-10.52-6.957-16.824-6.8828z"/>
</svg>
