<?xml version="1.0" encoding="UTF-8"?>
<svg width="700pt" height="700pt" version="1.1" viewBox="0 0 700 700" xmlns="http://www.w3.org/2000/svg" xmlns:xlink="http://www.w3.org/1999/xlink">
 <!-- <defs>
  <symbol id="u" overflow="visible">
   <path d="m2.0781-0.125c-0.10547 0.054688-0.21484 0.09375-0.32812 0.125-0.11719 0.03125-0.23438 0.046875-0.35938 0.046875-0.38672 0-0.6875-0.10156-0.90625-0.3125-0.21875-0.21875-0.32812-0.50391-0.32812-0.85938 0-0.36328 0.10938-0.64844 0.32812-0.85938 0.21875-0.21875 0.51953-0.32812 0.90625-0.32812 0.125 0 0.24219 0.015625 0.35938 0.046875 0.11328 0.03125 0.22266 0.074219 0.32812 0.125v0.46875c-0.10547-0.070313-0.21094-0.125-0.3125-0.15625-0.10547-0.039063-0.21484-0.0625-0.32812-0.0625-0.21094 0-0.375 0.070313-0.5 0.20312-0.11719 0.13672-0.17188 0.32422-0.17188 0.5625 0 0.23047 0.054687 0.41406 0.17188 0.54688 0.125 0.13672 0.28906 0.20312 0.5 0.20312 0.11328 0 0.22266-0.015625 0.32812-0.046875 0.10156-0.039063 0.20703-0.097656 0.3125-0.17188z"/>
  </symbol>
  <symbol id="b" overflow="visible">
   <path d="m1.5312-1.2344c-0.054688-0.019531-0.10547-0.035156-0.15625-0.046875-0.042969-0.007812-0.089844-0.015625-0.14062-0.015625-0.13672 0-0.24609 0.046875-0.32812 0.14062-0.074219 0.085938-0.10938 0.21094-0.10938 0.375v0.78125h-0.53125v-1.7031h0.53125v0.28125c0.070313-0.11328 0.15625-0.19141 0.25-0.23438 0.09375-0.050781 0.20312-0.078125 0.32812-0.078125h0.046875 0.09375z"/>
  </symbol>
  <symbol id="a" overflow="visible">
   <path d="m1.9531-0.85938v0.15625h-1.2656c0.007812 0.125 0.050781 0.22656 0.125 0.29688 0.082031 0.0625 0.19531 0.09375 0.34375 0.09375 0.11328 0 0.22656-0.015625 0.34375-0.046875 0.125-0.039063 0.25-0.09375 0.375-0.15625v0.40625c-0.125 0.054688-0.25781 0.089844-0.39062 0.10938-0.125 0.03125-0.25 0.046875-0.375 0.046875-0.3125 0-0.55469-0.078125-0.71875-0.23438-0.16797-0.15625-0.25-0.375-0.25-0.65625s0.082031-0.5 0.25-0.65625c0.16406-0.15625 0.39453-0.23438 0.6875-0.23438 0.26953 0 0.48438 0.078125 0.64062 0.23438s0.23438 0.37109 0.23438 0.64062zm-0.54688-0.17188c0-0.10156-0.03125-0.1875-0.09375-0.25s-0.14062-0.09375-0.23438-0.09375c-0.10547 0-0.19531 0.03125-0.26562 0.09375-0.0625 0.054688-0.10547 0.13672-0.125 0.25z"/>
  </symbol>
  <symbol id="f" overflow="visible">
   <path d="m1.0156-0.76562c-0.10547 0-0.1875 0.023437-0.25 0.0625-0.054687 0.03125-0.078125 0.089844-0.078125 0.17188 0 0.0625 0.019531 0.11719 0.0625 0.15625 0.039062 0.042969 0.10156 0.0625 0.1875 0.0625 0.10156 0 0.19141-0.035156 0.26562-0.10938 0.070313-0.070313 0.10938-0.16406 0.10938-0.28125v-0.0625zm0.84375-0.20312v0.96875h-0.54688v-0.25c-0.074219 0.10547-0.15625 0.18359-0.25 0.23438-0.09375 0.039062-0.20312 0.0625-0.32812 0.0625-0.17969 0-0.32422-0.050781-0.4375-0.15625-0.10547-0.10156-0.15625-0.23828-0.15625-0.40625 0-0.19531 0.066406-0.34375 0.20312-0.4375 0.13281-0.09375 0.34766-0.14062 0.64062-0.14062h0.32812v-0.03125c0-0.09375-0.039062-0.15625-0.10938-0.1875-0.0625-0.039062-0.16797-0.0625-0.3125-0.0625-0.11719 0-0.22656 0.011719-0.32812 0.03125-0.10547 0.023438-0.19922 0.058594-0.28125 0.10938v-0.42188c0.11328-0.03125 0.22656-0.050781 0.34375-0.0625 0.125-0.007812 0.24219-0.015625 0.35938-0.015625 0.3125 0 0.53516 0.0625 0.67188 0.1875 0.13281 0.11719 0.20312 0.30859 0.20312 0.57812z"/>
  </symbol>
  <symbol id="c" overflow="visible">
   <path d="m0.85938-2.1875v0.48438h0.5625v0.39062h-0.5625v0.71875c0 0.085938 0.015625 0.14062 0.046875 0.17188 0.03125 0.023437 0.09375 0.03125 0.1875 0.03125h0.28125v0.39062h-0.46875c-0.21875 0-0.375-0.039062-0.46875-0.125-0.085938-0.09375-0.125-0.25-0.125-0.46875v-0.71875h-0.26562v-0.39062h0.26562v-0.48438z"/>
  </symbol>
  <symbol id="i" overflow="visible">
   <path d="m1.4219-1.4531v-0.90625h0.54688v2.3594h-0.54688v-0.25c-0.074219 0.10547-0.15625 0.18359-0.25 0.23438-0.09375 0.039062-0.19922 0.0625-0.3125 0.0625-0.21094 0-0.38281-0.082031-0.51562-0.25-0.13672-0.16406-0.20312-0.37891-0.20312-0.64062 0-0.25781 0.066406-0.47266 0.20312-0.64062 0.13281-0.16406 0.30469-0.25 0.51562-0.25 0.11328 0 0.21875 0.027344 0.3125 0.078125 0.09375 0.042969 0.17578 0.10938 0.25 0.20312zm-0.35938 1.1094c0.11328 0 0.20312-0.039062 0.26562-0.125 0.0625-0.09375 0.09375-0.21875 0.09375-0.375 0-0.16406-0.03125-0.28906-0.09375-0.375-0.0625-0.082031-0.15234-0.125-0.26562-0.125-0.11719 0-0.20312 0.042969-0.26562 0.125-0.0625 0.085938-0.09375 0.21094-0.09375 0.375 0 0.15625 0.03125 0.28125 0.09375 0.375 0.0625 0.085938 0.14844 0.125 0.26562 0.125z"/>
  </symbol>
  <symbol id="h" overflow="visible">
   <path d="m1.1719-0.34375c0.11328 0 0.20312-0.039062 0.26562-0.125 0.0625-0.09375 0.09375-0.21875 0.09375-0.375 0-0.16406-0.03125-0.28906-0.09375-0.375-0.0625-0.082031-0.15234-0.125-0.26562-0.125-0.125 0-0.21875 0.042969-0.28125 0.125-0.0625 0.085938-0.09375 0.21094-0.09375 0.375 0 0.15625 0.03125 0.28125 0.09375 0.375 0.0625 0.085938 0.15625 0.125 0.28125 0.125zm-0.375-1.1094c0.082031-0.09375 0.16406-0.16016 0.25-0.20312 0.09375-0.050781 0.20312-0.078125 0.32812-0.078125 0.20703 0 0.37891 0.085937 0.51562 0.25 0.13281 0.16797 0.20312 0.38281 0.20312 0.64062 0 0.26172-0.070312 0.47656-0.20312 0.64062-0.13672 0.16797-0.30859 0.25-0.51562 0.25-0.125 0-0.23438-0.023438-0.32812-0.0625-0.085937-0.050781-0.16797-0.12891-0.25-0.23438v0.25h-0.53125v-2.3594h0.53125z"/>
  </symbol>
  <symbol id="g" overflow="visible">
   <path d="m0.03125-1.7031h0.54688l0.45312 1.1562 0.39062-1.1562h0.54688l-0.71875 1.8594c-0.074219 0.1875-0.15625 0.31641-0.25 0.39062-0.09375 0.082031-0.21875 0.125-0.375 0.125h-0.3125v-0.35938h0.17188c0.09375 0 0.16016-0.015625 0.20312-0.046875 0.039062-0.03125 0.070312-0.085937 0.09375-0.15625l0.015625-0.046875z"/>
  </symbol>
  <symbol id="e" overflow="visible">
   <path d="m0.26562-2.3594h0.53125v2.3594h-0.53125z"/>
  </symbol>
  <symbol id="t" overflow="visible">
   <path d="m0.26562-1.7031h0.53125v1.7031h-0.53125zm0-0.65625h0.53125v0.4375h-0.53125z"/>
  </symbol>
  <symbol id="s" overflow="visible">
   <path d="m1.4219-0.28125c-0.074219 0.09375-0.15625 0.16797-0.25 0.21875-0.09375 0.042969-0.19922 0.0625-0.3125 0.0625-0.21094 0-0.38281-0.078125-0.51562-0.23438-0.13672-0.16406-0.20312-0.37891-0.20312-0.64062 0-0.25 0.066406-0.45312 0.20312-0.60938 0.13281-0.16406 0.30469-0.25 0.51562-0.25 0.11328 0 0.21875 0.027344 0.3125 0.078125 0.09375 0.042969 0.17578 0.10938 0.25 0.20312v-0.25h0.54688v1.5312c0 0.26953-0.089844 0.47656-0.26562 0.625-0.16797 0.14453-0.41797 0.21875-0.75 0.21875-0.10547 0-0.21094-0.011719-0.3125-0.03125-0.09375-0.011719-0.19531-0.03125-0.29688-0.0625v-0.42188c0.09375 0.050781 0.1875 0.085938 0.28125 0.10938 0.09375 0.03125 0.1875 0.046875 0.28125 0.046875 0.17578 0 0.30469-0.042969 0.39062-0.125 0.082031-0.074219 0.125-0.19141 0.125-0.35938zm-0.35938-1.0625c-0.11719 0-0.20312 0.042969-0.26562 0.125-0.0625 0.085938-0.09375 0.19922-0.09375 0.34375 0 0.15625 0.03125 0.27734 0.09375 0.35938 0.0625 0.085937 0.14844 0.125 0.26562 0.125 0.11328 0 0.20312-0.039063 0.26562-0.125 0.0625-0.082031 0.09375-0.20312 0.09375-0.35938 0-0.14453-0.03125-0.25781-0.09375-0.34375-0.0625-0.082031-0.15234-0.125-0.26562-0.125z"/>
  </symbol>
  <symbol id="r" overflow="visible">
   <path d="m1.375-2.3594v0.35938h-0.29688c-0.074219 0-0.125 0.015625-0.15625 0.046875-0.03125 0.023437-0.046875 0.070313-0.046875 0.14062v0.10938h0.46875v0.39062h-0.46875v1.3125h-0.54688v-1.3125h-0.26562v-0.39062h0.26562v-0.10938c0-0.1875 0.050781-0.32031 0.15625-0.40625 0.10156-0.09375 0.26562-0.14062 0.48438-0.14062z"/>
  </symbol>
  <symbol id="d" overflow="visible">
   <path d="m1.0781-1.3594c-0.125 0-0.21875 0.046875-0.28125 0.14062-0.0625 0.085938-0.09375 0.21094-0.09375 0.375 0 0.15625 0.03125 0.28125 0.09375 0.375 0.0625 0.085938 0.15625 0.125 0.28125 0.125 0.11328 0 0.20312-0.039062 0.26562-0.125 0.0625-0.09375 0.09375-0.21875 0.09375-0.375 0-0.16406-0.03125-0.28906-0.09375-0.375-0.0625-0.09375-0.15234-0.14062-0.26562-0.14062zm0-0.375c0.28906 0 0.51562 0.078125 0.67188 0.23438 0.16406 0.15625 0.25 0.375 0.25 0.65625s-0.085938 0.5-0.25 0.65625c-0.15625 0.15625-0.38281 0.23438-0.67188 0.23438-0.30469 0-0.53906-0.078125-0.70312-0.23438-0.15625-0.15625-0.23438-0.375-0.23438-0.65625s0.078125-0.5 0.23438-0.65625c0.16406-0.15625 0.39844-0.23438 0.70312-0.23438z"/>
  </symbol>
  <symbol id="q" overflow="visible">
   <path d="m1.8438-1.4219c0.0625-0.10156 0.14062-0.17969 0.23438-0.23438 0.09375-0.050781 0.19531-0.078125 0.3125-0.078125 0.19531 0 0.34766 0.0625 0.45312 0.1875 0.10156 0.11719 0.15625 0.28906 0.15625 0.51562v1.0312h-0.54688v-0.89062-0.03125-0.0625c0-0.125-0.023437-0.21094-0.0625-0.26562-0.03125-0.050781-0.089844-0.078125-0.17188-0.078125-0.09375 0-0.17188 0.042969-0.23438 0.125-0.054687 0.085937-0.078125 0.21094-0.078125 0.375v0.82812h-0.54688v-0.89062c0-0.1875-0.023437-0.30469-0.0625-0.35938-0.03125-0.050781-0.089844-0.078125-0.17188-0.078125-0.10547 0-0.1875 0.042969-0.25 0.125-0.054688 0.085937-0.078125 0.20312-0.078125 0.35938v0.84375h-0.53125v-1.7031h0.53125v0.25c0.070313-0.09375 0.14844-0.16016 0.23438-0.20312 0.09375-0.050781 0.19141-0.078125 0.29688-0.078125 0.11328 0 0.21094 0.027344 0.29688 0.078125 0.09375 0.054688 0.16406 0.13281 0.21875 0.23438z"/>
  </symbol>
  <symbol id="p" overflow="visible">
   <path d="m1.9688-1.0312v1.0312h-0.54688v-0.79688c0-0.14453-0.007813-0.24219-0.015625-0.29688 0-0.050781-0.011719-0.09375-0.03125-0.125-0.023438-0.03125-0.054688-0.054688-0.09375-0.078125-0.03125-0.019531-0.070312-0.03125-0.10938-0.03125-0.11719 0-0.21094 0.046875-0.28125 0.14062-0.0625 0.085938-0.09375 0.19922-0.09375 0.34375v0.84375h-0.53125v-2.3594h0.53125v0.90625c0.082031-0.09375 0.17188-0.16016 0.26562-0.20312 0.09375-0.050781 0.19531-0.078125 0.3125-0.078125 0.19531 0 0.34375 0.0625 0.4375 0.1875 0.10156 0.11719 0.15625 0.28906 0.15625 0.51562z"/>
  </symbol>
  <symbol id="o" overflow="visible">
   <path d="m0.28125-2.2656h0.65625l0.82812 1.5469v-1.5469h0.54688v2.2656h-0.65625l-0.8125-1.5625v1.5625h-0.5625z"/>
  </symbol>
  <symbol id="n" overflow="visible">
   <path d="m0.25-0.65625v-1.0469h0.54688v0.17188c0 0.09375-0.007813 0.21484-0.015625 0.35938v0.26562c0 0.13672 0.003906 0.23438 0.015625 0.29688 0.007813 0.0625 0.019531 0.10547 0.03125 0.125 0.019531 0.042969 0.046875 0.074219 0.078125 0.09375 0.039062 0.011719 0.085938 0.015625 0.14062 0.015625 0.11328 0 0.20312-0.039062 0.26562-0.125 0.0625-0.082031 0.09375-0.20312 0.09375-0.35938v-0.84375h0.54688v1.7031h-0.54688v-0.25c-0.085938 0.10547-0.17188 0.18359-0.26562 0.23438-0.085937 0.039062-0.18359 0.0625-0.29688 0.0625-0.19922 0-0.35156-0.054688-0.45312-0.17188-0.09375-0.125-0.14062-0.30078-0.14062-0.53125z"/>
  </symbol>
  <symbol id="m" overflow="visible">
   <path d="m1.9688-1.0312v1.0312h-0.54688v-0.79688c0-0.14453-0.007813-0.24219-0.015625-0.29688 0-0.050781-0.011719-0.09375-0.03125-0.125-0.023438-0.03125-0.054688-0.054688-0.09375-0.078125-0.03125-0.019531-0.070312-0.03125-0.10938-0.03125-0.11719 0-0.21094 0.046875-0.28125 0.14062-0.0625 0.085938-0.09375 0.19922-0.09375 0.34375v0.84375h-0.53125v-1.7031h0.53125v0.25c0.082031-0.09375 0.17188-0.16016 0.26562-0.20312 0.09375-0.050781 0.19531-0.078125 0.3125-0.078125 0.19531 0 0.34375 0.0625 0.4375 0.1875 0.10156 0.11719 0.15625 0.28906 0.15625 0.51562z"/>
  </symbol>
  <symbol id="l" overflow="visible">
   <path d="m0.28125-2.2656h0.96875c0.28906 0 0.51562 0.070313 0.67188 0.20312 0.15625 0.125 0.23438 0.30469 0.23438 0.53125 0 0.24219-0.078125 0.42969-0.23438 0.5625-0.15625 0.125-0.38281 0.1875-0.67188 0.1875h-0.375v0.78125h-0.59375zm0.59375 0.42188v0.64062h0.3125c0.11328 0 0.20312-0.023437 0.26562-0.078125 0.0625-0.0625 0.09375-0.14453 0.09375-0.25 0-0.09375-0.03125-0.16406-0.09375-0.21875-0.0625-0.0625-0.15234-0.09375-0.26562-0.09375z"/>
  </symbol>
  <symbol id="k" overflow="visible">
   <path d="m0.26562-1.7031h0.53125v1.6719c0 0.22656-0.054687 0.39844-0.15625 0.51562-0.10547 0.125-0.26172 0.1875-0.46875 0.1875h-0.28125v-0.35938h0.09375c0.10156 0 0.17578-0.027344 0.21875-0.078125 0.039063-0.042969 0.0625-0.13281 0.0625-0.26562zm0-0.65625h0.53125v0.4375h-0.53125z"/>
  </symbol>
  <symbol id="j" overflow="visible">
   <path d="m1.6406-1.6406v0.4375c-0.074219-0.050781-0.15234-0.085937-0.23438-0.10938-0.074219-0.03125-0.14844-0.046875-0.21875-0.046875-0.15625 0-0.27734 0.046875-0.35938 0.14062-0.085937 0.085938-0.125 0.21094-0.125 0.375 0 0.15625 0.039063 0.28125 0.125 0.375 0.082031 0.085938 0.20312 0.125 0.35938 0.125 0.082031 0 0.16016-0.007812 0.23438-0.03125 0.070313-0.03125 0.14453-0.070312 0.21875-0.125v0.45312c-0.09375 0.03125-0.18359 0.050781-0.26562 0.0625-0.085938 0.019531-0.17188 0.03125-0.26562 0.03125-0.30469 0-0.54297-0.078125-0.71875-0.23438-0.16797-0.15625-0.25-0.375-0.25-0.65625s0.082031-0.5 0.25-0.65625c0.17578-0.15625 0.41406-0.23438 0.71875-0.23438 0.09375 0 0.17969 0.011719 0.26562 0.03125 0.082031 0.011719 0.17188 0.03125 0.26562 0.0625z"/>
  </symbol>
 </defs> -->
 <g>
  <path d="m601.71 465.93c-29.059 74.215-97.188 87.223-119.45 87.223-6.5391 0-108.36 5.75-254.71-142.16-117.79-119.02-132.18-247.02-133.43-271.34-1.2188-23.688 5.1484-83.113 81.879-127.26 9.5078-5.4688 28.355-7.8945 33.223-2.7109 2.1602 2.3008 66.562 115.2 68.254 118.95 1.6914 3.7344 2.543 7.4141 2.543 11.02 0 5.1562-3.4492 11.605-10.352 19.34-6.8945 7.7344-14.398 14.828-22.508 21.27-8.1094 6.4492-15.613 13.281-22.516 20.5-6.8984 7.2148-10.344 13.152-10.344 17.793 0.46484 12.043 9.7305 55.172 80.285 121.22 70.57 66.066 104.56 84.68 107.83 85.965 3.2734 1.2852 5.9922 1.9258 8.168 1.9258 4.3633 0 9.9297-3.668 16.707-11.016 6.7734-7.3516 29.555-40.617 36.816-47.973 7.2617-7.3398 13.312-11.016 18.16-11.016 3.3867 0 6.832 0.89844 10.34 2.7031 3.5117 1.8047 109.62 67.957 111.65 70.164 5.5039 6.0156 1.6172 24.781-2.543 35.406"/>
  <use x="85.554688" y="569.332031" xlink:href="#u"/>
  <use x="87.839844" y="569.332031" xlink:href="#b"/>
  <use x="89.375" y="569.332031" xlink:href="#a"/>
  <use x="91.484375" y="569.332031" xlink:href="#f"/>
  <use x="93.582031" y="569.332031" xlink:href="#c"/>
  <use x="95.070312" y="569.332031" xlink:href="#a"/>
  <use x="97.179688" y="569.332031" xlink:href="#i"/>
  <use x="100.488281" y="569.332031" xlink:href="#h"/>
  <use x="102.71875" y="569.332031" xlink:href="#g"/>
  <use x="105.828125" y="569.332031" xlink:href="#f"/>
  <use x="107.925781" y="569.332031" xlink:href="#e"/>
  <use x="108.992188" y="569.332031" xlink:href="#b"/>
  <use x="110.527344" y="569.332031" xlink:href="#t"/>
  <use x="111.59375" y="569.332031" xlink:href="#s"/>
  <use x="113.820312" y="569.332031" xlink:href="#a"/>
  <use x="115.929688" y="569.332031" xlink:href="#e"/>
  <use x="85.554688" y="572.445312" xlink:href="#r"/>
  <use x="86.910156" y="572.445312" xlink:href="#b"/>
  <use x="88.445312" y="572.445312" xlink:href="#d"/>
  <use x="90.582031" y="572.445312" xlink:href="#q"/>
  <use x="94.90625" y="572.445312" xlink:href="#c"/>
  <use x="96.394531" y="572.445312" xlink:href="#p"/>
  <use x="98.609375" y="572.445312" xlink:href="#a"/>
  <use x="101.800781" y="572.445312" xlink:href="#o"/>
  <use x="104.40625" y="572.445312" xlink:href="#d"/>
  <use x="106.542969" y="572.445312" xlink:href="#n"/>
  <use x="108.757812" y="572.445312" xlink:href="#m"/>
  <use x="112.054688" y="572.445312" xlink:href="#l"/>
  <use x="114.335938" y="572.445312" xlink:href="#b"/>
  <use x="115.867188" y="572.445312" xlink:href="#d"/>
  <use x="118.007812" y="572.445312" xlink:href="#k"/>
  <use x="119.074219" y="572.445312" xlink:href="#a"/>
  <use x="121.183594" y="572.445312" xlink:href="#j"/>
  <use x="123.027344" y="572.445312" xlink:href="#c"/>
 </g>
</svg>
