<?xml version="1.0" encoding="UTF-8"?>
<svg width="700pt" height="700pt" version="1.1" viewBox="0 0 700 700" xmlns="http://www.w3.org/2000/svg">
 <g>
  <path d="m210.34 551.52h186.33c55.508 0 96.387-35.332 107.06-75.328 34.297-128.82 67.488-254.73 103.07-408.39 16.344-70.492-87.242-87.223-114.97 0-27.727 87.223-118.96 301.31-118.96 301.31s-110.66 14.219-202.21-3.9375c-72.359-14.391-105.06 61.449-55.492 134.79 25.895 38.32 47.562 51.559 95.164 51.559z"/>
  <path d="m213.32 197.05-13.457-25.945c-1.6289-3.1211-4.2422-8.1953-5.8711-11.32l-13.457-25.93c-1.6289-3.1211-4.2773-3.1211-5.8711 0l-13.457 25.93c-1.6094 3.125-4.2422 8.1992-5.8516 11.32l-13.457 25.945c-1.6289 3.1211-0.066406 5.6328 3.4102 5.6328h20.414c-1.7656 15.188-5.8047 32.176-13.082 39.25-26.422 25.656-26.422 51.535-26.422 90.719v2.7656h25.488v-2.7656c-0.035157-37.281-0.035157-54.285 18.668-72.445 14.289-13.848 19.227-40.047 20.973-57.527h18.531c3.5117 0.007812 5.0391-2.5039 3.4414-5.6289z"/>
  <path d="m309.9 197.05-13.457-25.945c-1.6289-3.1211-4.2773-8.1953-5.9062-11.32l-13.422-25.93c-1.6289-3.1211-4.2773-3.1211-5.8711 0l-13.457 25.93c-1.6289 3.1211-4.2773 8.1953-5.8711 11.32l-13.457 25.945c-1.6289 3.1211-0.10156 5.6328 3.4102 5.6328h20.379c-1.7656 15.188-5.8047 32.176-13.066 39.25-26.457 25.656-26.422 51.535-26.422 90.719v2.7656h25.453v-2.7656c0-37.281 0-54.285 18.699-72.445 14.289-13.848 19.227-40.047 20.973-57.527h18.531c3.5508 0.007812 5.0781-2.5039 3.4844-5.6289z"/>
  <path d="m406.46 197.05-13.457-25.945c-1.6289-3.1211-4.2422-8.1953-5.8711-11.32l-13.457-25.93c-1.5938-3.1211-4.2422-3.1211-5.8711 0l-13.457 25.93c-1.6289 3.1211-4.2422 8.1953-5.8711 11.32l-13.457 25.945c-1.5938 3.1211-0.066406 5.6328 3.4453 5.6328h20.379c-1.7656 15.188-5.8047 32.176-13.082 39.25-26.422 25.656-26.422 51.535-26.387 90.719v2.7656h25.453v-2.7656c0-37.281 0-54.285 18.668-72.445 14.289-13.848 19.262-40.047 20.973-57.527h18.566c3.4961 0.007812 5.0391-2.5039 3.4258-5.6289z"/>
 </g>
</svg>
