<svg width="30" height="30" viewBox="0 0 30 30" fill="none" xmlns="http://www.w3.org/2000/svg">
<path d="M15 0C6.72902 0 0 6.72902 0 15C0 23.271 6.72902 30 15 30C23.271 30 30 23.271 30 15C30 6.72902 23.271 0 15 0ZM13.5484 27.0094C8.03625 26.3471 3.65285 21.9637 2.99063 16.4516H11.4115C11.8044 17.4216 12.5784 18.1958 13.5484 18.5885V27.0094ZM11.4115 13.5484H2.99063C3.71004 7.56018 8.82105 2.9032 15 2.9032C21.1789 2.9032 26.29 7.56018 27.0094 13.5483H18.5885C18.0141 12.1299 16.6243 11.129 15 11.129C13.3757 11.129 11.9859 12.13 11.4115 13.5484ZM16.4516 27.0094V18.5885C17.4216 18.1956 18.1958 17.4216 18.5885 16.4516H27.0094C26.3471 21.9637 21.9637 26.3471 16.4516 27.0094Z" fill="#242526"/>
</svg>
