<svg xmlns="http://www.w3.org/2000/svg" xmlns:xlink="http://www.w3.org/1999/xlink" version="1.1" viewBox="83.38 73.55 534.1 412.07"> <!-- <defs>  <symbol id="r" overflow="visible">   <path d="m28-1.6719c-1.4375 0.75-2.9453 1.3125-4.5156 1.6875-1.5625 0.38281-3.1953 0.57812-4.8906 0.57812-5.0742 0-9.0938-1.4141-12.062-4.25-2.9688-2.8438-4.4531-6.6914-4.4531-11.547 0-4.875 1.4844-8.7266 4.4531-11.562 2.9688-2.832 6.9883-4.25 12.062-4.25 1.6953 0 3.3281 0.19531 4.8906 0.57812 1.5703 0.375 3.0781 0.9375 4.5156 1.6875v6.2969c-1.4609-0.98828-2.8984-1.7109-4.3125-2.1719-1.4062-0.46875-2.8984-0.70312-4.4688-0.70312-2.8047 0-5.0078 0.90234-6.6094 2.7031-1.6055 1.793-2.4062 4.2656-2.4062 7.4219 0 3.1484 0.80078 5.6172 2.4062 7.4062 1.6016 1.793 3.8047 2.6875 6.6094 2.6875 1.5703 0 3.0625-0.22656 4.4688-0.6875 1.4141-0.45703 2.8516-1.1875 4.3125-2.1875z"/>  </symbol>  <symbol id="f" overflow="visible">   <path d="m20.484-16.641c-0.63672-0.28906-1.2734-0.50781-1.9062-0.65625-0.625-0.14453-1.2617-0.21875-1.9062-0.21875-1.875 0-3.3242 0.60547-4.3438 1.8125-1.0117 1.2109-1.5156 2.9336-1.5156 5.1719v10.531h-7.2969v-22.859h7.2969v3.75c0.9375-1.4883 2.0156-2.5781 3.2344-3.2656s2.6758-1.0312 4.375-1.0312c0.25 0 0.51562 0.011719 0.79688 0.03125 0.28906 0.023438 0.70703 0.0625 1.25 0.125z"/>  </symbol>  <symbol id="e" overflow="visible">   <path d="m26.328-11.484v2.0781h-17.078c0.17578 1.7109 0.78906 2.9961 1.8438 3.8594 1.0625 0.85547 2.5469 1.2812 4.4531 1.2812 1.5391 0 3.1133-0.22266 4.7188-0.67188 1.6133-0.45703 3.2734-1.1484 4.9844-2.0781v5.625c-1.7305 0.65625-3.4609 1.1523-5.1875 1.4844-1.7305 0.33203-3.4609 0.5-5.1875 0.5-4.1367 0-7.3516-1.0508-9.6406-3.1562-2.293-2.1016-3.4375-5.0508-3.4375-8.8438 0-3.7266 1.125-6.6602 3.375-8.7969 2.25-2.1328 5.3477-3.2031 9.2969-3.2031 3.5938 0 6.4688 1.0859 8.625 3.25 2.1562 2.1562 3.2344 5.0469 3.2344 8.6719zm-7.5156-2.4375c0-1.3828-0.40625-2.5-1.2188-3.3438-0.80469-0.85156-1.8594-1.2812-3.1719-1.2812-1.4062 0-2.5547 0.40234-3.4375 1.2031-0.88672 0.79297-1.4375 1.9336-1.6562 3.4219z"/>  </symbol>  <symbol id="i" overflow="visible">   <path d="m13.75-10.281c-1.5234 0-2.668 0.26172-3.4375 0.78125-0.77344 0.51172-1.1562 1.2734-1.1562 2.2812 0 0.91797 0.30469 1.6406 0.92188 2.1719 0.625 0.52344 1.4883 0.78125 2.5938 0.78125 1.375 0 2.5312-0.48828 3.4688-1.4688 0.9375-0.98828 1.4062-2.2266 1.4062-3.7188v-0.82812zm11.172-2.7656v13.047h-7.375v-3.3906c-0.98047 1.3867-2.0859 2.3984-3.3125 3.0312-1.2188 0.63281-2.7031 0.95312-4.4531 0.95312-2.375 0-4.3047-0.6875-5.7812-2.0625-1.4688-1.3828-2.2031-3.1797-2.2031-5.3906 0-2.6758 0.92188-4.6406 2.7656-5.8906 1.8438-1.2578 4.7383-1.8906 8.6875-1.8906h4.2969v-0.5625c0-1.1562-0.46094-2-1.375-2.5312-0.90625-0.53906-2.3242-0.8125-4.25-0.8125-1.5625 0-3.0234 0.15625-4.375 0.46875-1.3438 0.3125-2.5938 0.78125-3.75 1.4062v-5.5781c1.5625-0.375 3.1289-0.66016 4.7031-0.85938 1.582-0.19531 3.1641-0.29688 4.75-0.29688 4.1133 0 7.0859 0.8125 8.9219 2.4375 1.832 1.625 2.75 4.2656 2.75 7.9219z"/>  </symbol>  <symbol id="a" overflow="visible">   <path d="m11.484-29.344v6.4844h7.5312v5.2188h-7.5312v9.7031c0 1.0625 0.20703 1.7812 0.625 2.1562 0.42578 0.375 1.2695 0.5625 2.5312 0.5625h3.75v5.2188h-6.2656c-2.8867 0-4.9336-0.59766-6.1406-1.7969-1.1992-1.207-1.7969-3.2539-1.7969-6.1406v-9.7031h-3.6406v-5.2188h3.6406v-6.4844z"/>  </symbol>  <symbol id="h" overflow="visible">   <path d="m19.062-19.516v-12.234h7.3438v31.75h-7.3438v-3.3125c-1.0117 1.3555-2.1211 2.3438-3.3281 2.9688-1.2109 0.625-2.6094 0.9375-4.2031 0.9375-2.8125 0-5.125-1.1172-6.9375-3.3594-1.8125-2.2383-2.7188-5.1172-2.7188-8.6406 0-3.5195 0.90625-6.3984 2.7188-8.6406 1.8125-2.2383 4.125-3.3594 6.9375-3.3594 1.5703 0 2.9688 0.32031 4.1875 0.95312 1.2188 0.625 2.332 1.6055 3.3438 2.9375zm-4.8125 14.797c1.5625 0 2.7539-0.56641 3.5781-1.7031 0.82031-1.1445 1.2344-2.8047 1.2344-4.9844 0-2.1758-0.41406-3.8359-1.2344-4.9844-0.82422-1.1445-2.0156-1.7188-3.5781-1.7188-1.5547 0-2.7422 0.57422-3.5625 1.7188-0.82422 1.1484-1.2344 2.8086-1.2344 4.9844 0 2.1797 0.41016 3.8398 1.2344 4.9844 0.82031 1.1367 2.0078 1.7031 3.5625 1.7031z"/>  </symbol>  <symbol id="d" overflow="visible">   <path d="m15.672-4.7188c1.5625 0 2.7539-0.56641 3.5781-1.7031 0.82031-1.1445 1.2344-2.8047 1.2344-4.9844 0-2.1758-0.41406-3.8359-1.2344-4.9844-0.82422-1.1445-2.0156-1.7188-3.5781-1.7188s-2.7656 0.57812-3.6094 1.7344c-0.83594 1.1484-1.25 2.8047-1.25 4.9688 0 2.168 0.41406 3.8242 1.25 4.9688 0.84375 1.1484 2.0469 1.7188 3.6094 1.7188zm-4.8594-14.797c1.0078-1.332 2.125-2.3125 3.3438-2.9375 1.2266-0.63281 2.6406-0.95312 4.2344-0.95312 2.8125 0 5.125 1.1211 6.9375 3.3594 1.8125 2.2422 2.7188 5.1211 2.7188 8.6406 0 3.5234-0.90625 6.4023-2.7188 8.6406-1.8125 2.2422-4.125 3.3594-6.9375 3.3594-1.5938 0-3.0078-0.32031-4.2344-0.95312-1.2188-0.63281-2.3359-1.6172-3.3438-2.9531v3.3125h-7.2969v-31.75h7.2969z"/>  </symbol>  <symbol id="c" overflow="visible">   <path d="m0.51562-22.859h7.2969l6.1406 15.516 5.2344-15.516h7.2969l-9.6094 25.016c-0.96875 2.5508-2.0938 4.332-3.375 5.3438-1.2812 1.0078-2.9805 1.5156-5.0938 1.5156h-4.2188v-4.7969h2.2812c1.2383 0 2.1406-0.19922 2.7031-0.59375 0.5625-0.38672 1-1.0898 1.3125-2.1094l0.20312-0.64062z"/>  </symbol>  <symbol id="b" overflow="visible">   <path d="m3.8438-30.469h13.031c3.875 0 6.8477 0.85938 8.9219 2.5781 2.082 1.7188 3.125 4.1719 3.125 7.3594 0 3.1992-1.043 5.6562-3.125 7.375-2.0742 1.7188-5.0469 2.5781-8.9219 2.5781h-5.1875v10.578h-7.8438zm7.8438 5.6875v8.5156h4.3594c1.5195 0 2.6914-0.36719 3.5156-1.1094 0.83203-0.73828 1.25-1.7891 1.25-3.1562 0-1.3633-0.41797-2.4102-1.25-3.1406-0.82422-0.73828-1.9961-1.1094-3.5156-1.1094z"/>  </symbol>  <symbol id="g" overflow="visible">   <path d="m14.391-18.188c-1.625 0-2.8672 0.58594-3.7188 1.75-0.84375 1.168-1.2656 2.8438-1.2656 5.0312s0.42188 3.8672 1.2656 5.0312c0.85156 1.168 2.0938 1.75 3.7188 1.75 1.5938 0 2.8125-0.58203 3.6562-1.75 0.84375-1.1641 1.2656-2.8438 1.2656-5.0312s-0.42188-3.8633-1.2656-5.0312c-0.84375-1.1641-2.0625-1.75-3.6562-1.75zm0-5.2188c3.9258 0 6.9922 1.0625 9.2031 3.1875 2.2188 2.1172 3.3281 5.0547 3.3281 8.8125 0 3.75-1.1094 6.6875-3.3281 8.8125-2.2109 2.125-5.2773 3.1875-9.2031 3.1875-3.9492 0-7.0391-1.0625-9.2656-3.1875-2.2188-2.125-3.3281-5.0625-3.3281-8.8125 0-3.7578 1.1094-6.6953 3.3281-8.8125 2.2266-2.125 5.3164-3.1875 9.2656-3.1875z"/>  </symbol>  <symbol id="q" overflow="visible">   <path d="m25.047-29.516v6.4531c-1.6797-0.75-3.3125-1.3125-4.9062-1.6875-1.5938-0.38281-3.0938-0.57812-4.5-0.57812-1.8867 0-3.2773 0.26172-4.1719 0.78125-0.89844 0.51172-1.3438 1.3125-1.3438 2.4062 0 0.8125 0.30078 1.4492 0.90625 1.9062 0.60156 0.46094 1.7031 0.85156 3.2969 1.1719l3.3438 0.67188c3.3828 0.67969 5.7891 1.7148 7.2188 3.1094 1.4375 1.3867 2.1562 3.3555 2.1562 5.9062 0 3.3672-1 5.8711-3 7.5156-1.9922 1.6367-5.0312 2.4531-9.125 2.4531-1.9375 0-3.8828-0.1875-5.8281-0.5625-1.9375-0.36328-3.8828-0.90625-5.8281-1.625v-6.625c1.9453 1.0312 3.8281 1.8086 5.6406 2.3281 1.8203 0.52344 3.5703 0.78125 5.25 0.78125 1.7188 0 3.0312-0.28125 3.9375-0.84375 0.91406-0.57031 1.375-1.3906 1.375-2.4531 0-0.95703-0.3125-1.6914-0.9375-2.2031-0.61719-0.51953-1.8438-0.98438-3.6875-1.3906l-3.0469-0.67188c-3.0547-0.65625-5.2812-1.6953-6.6875-3.125-1.4062-1.4258-2.1094-3.3516-2.1094-5.7812 0-3.0312 0.97656-5.3594 2.9375-6.9844 1.957-1.6328 4.7734-2.4531 8.4531-2.4531 1.6641 0 3.3828 0.125 5.1562 0.375 1.7695 0.25 3.6016 0.625 5.5 1.125z"/>  </symbol>  <symbol id="p" overflow="visible">   <path d="m24.688-19.062c0.92578-1.4141 2.0234-2.4922 3.2969-3.2344 1.2812-0.73828 2.6797-1.1094 4.2031-1.1094 2.625 0 4.625 0.8125 6 2.4375 1.375 1.6172 2.0625 3.9648 2.0625 7.0469v13.922h-7.3438v-11.922c0.007812-0.17578 0.015625-0.35938 0.015625-0.54688 0.007813-0.1875 0.015625-0.45703 0.015625-0.8125 0-1.625-0.24219-2.7969-0.71875-3.5156-0.46875-0.72656-1.2344-1.0938-2.2969-1.0938-1.3867 0-2.4609 0.57422-3.2188 1.7188-0.75 1.1367-1.1406 2.7891-1.1719 4.9531v11.219h-7.3438v-11.922c0-2.5312-0.21875-4.1562-0.65625-4.875-0.4375-0.72656-1.2148-1.0938-2.3281-1.0938-1.3984 0-2.4805 0.57422-3.25 1.7188-0.76172 1.1484-1.1406 2.7891-1.1406 4.9219v11.25h-7.3438v-22.859h7.3438v3.3438c0.89453-1.2891 1.9258-2.2578 3.0938-2.9062 1.1641-0.65625 2.4453-0.98438 3.8438-0.98438 1.582 0 2.9766 0.38281 4.1875 1.1406 1.207 0.76172 2.125 1.8281 2.75 3.2031z"/>  </symbol>  <symbol id="o" overflow="visible">   <path d="m3.5156-31.75h7.2969v31.75h-7.2969z"/>  </symbol>  <symbol id="n" overflow="visible">   <path d="m21.375-22.141v5.5469c-1.5742-0.65625-3.0898-1.1445-4.5469-1.4688-1.4492-0.32031-2.8203-0.48438-4.1094-0.48438-1.3867 0-2.418 0.17188-3.0938 0.51562-0.67969 0.34375-1.0156 0.88281-1.0156 1.6094 0 0.58594 0.25391 1.0312 0.76562 1.3438 0.50781 0.3125 1.4258 0.54297 2.75 0.6875l1.2812 0.1875c3.7383 0.48047 6.2539 1.2656 7.5469 2.3594 1.3008 1.0859 1.9531 2.7891 1.9531 5.1094 0 2.4375-0.90234 4.2734-2.7031 5.5-1.793 1.2188-4.4766 1.8281-8.0469 1.8281-1.5117 0-3.0742-0.12109-4.6875-0.35938-1.6055-0.23828-3.2578-0.59766-4.9531-1.0781v-5.5469c1.4453 0.71094 2.9375 1.2422 4.4688 1.5938 1.5312 0.35547 3.0859 0.53125 4.6719 0.53125 1.4258 0 2.5-0.19531 3.2188-0.59375 0.71875-0.39453 1.0781-0.97656 1.0781-1.75 0-0.65625-0.25-1.1406-0.75-1.4531-0.49219-0.32031-1.4766-0.57031-2.9531-0.75l-1.2969-0.17188c-3.25-0.40625-5.5312-1.1562-6.8438-2.25-1.3047-1.1016-1.9531-2.7812-1.9531-5.0312 0-2.4141 0.82812-4.207 2.4844-5.375 1.6641-1.1758 4.2109-1.7656 7.6406-1.7656 1.3516 0 2.7695 0.10547 4.25 0.3125 1.4766 0.19922 3.0938 0.51562 4.8438 0.95312z"/>  </symbol>  <symbol id="m" overflow="visible">   <path d="m18.547-31.75v4.7969h-4.0312c-1.043 0-1.7656 0.1875-2.1719 0.5625-0.40625 0.36719-0.60938 1.0117-0.60938 1.9375v1.5938h6.25v5.2188h-6.25v17.641h-7.3125v-17.641h-3.625v-5.2188h3.625v-1.5938c0-2.4883 0.69141-4.3281 2.0781-5.5156 1.3945-1.1875 3.5469-1.7812 6.4531-1.7812z"/>  </symbol>  <symbol id="l" overflow="visible">   <path d="m26.484-13.922v13.922h-7.3438v-10.609c0-2-0.046875-3.375-0.14062-4.125-0.085938-0.75-0.23438-1.3008-0.45312-1.6562-0.28125-0.47656-0.66797-0.84766-1.1562-1.1094-0.49219-0.25781-1.0469-0.39062-1.6719-0.39062-1.5312 0-2.7344 0.58984-3.6094 1.7656-0.86719 1.168-1.2969 2.793-1.2969 4.875v11.25h-7.2969v-31.75h7.2969v12.234c1.1016-1.332 2.2734-2.3125 3.5156-2.9375 1.2383-0.63281 2.6016-0.95312 4.0938-0.95312 2.6445 0 4.6484 0.8125 6.0156 2.4375 1.3633 1.6172 2.0469 3.9648 2.0469 7.0469z"/>  </symbol>  <symbol id="k" overflow="visible">   <path d="m3.8438-30.469h8.7656l11.078 20.891v-20.891h7.4531v30.469h-8.7656l-11.094-20.906v20.906h-7.4375z"/>  </symbol>  <symbol id="j" overflow="visible">   <path d="m3.5156-22.859h7.2969v22.453c0 3.0625-0.73438 5.3945-2.2031 7-1.4688 1.6133-3.6016 2.4219-6.3906 2.4219h-3.6094v-4.7969h1.2656c1.3828 0 2.3359-0.3125 2.8594-0.9375 0.51953-0.625 0.78125-1.8555 0.78125-3.6875zm0-8.8906h7.2969v5.9531h-7.2969z"/>  </symbol> </defs> --> <g>  <path d="m350 174.69c4.1797-6.6875 10.031-10.867 17.551-11.703-0.83594-3.3438-0.83594-5.8516-0.83594-9.1953-10.031-0.83594-23.402-0.83594-33.434 0 0 3.3438 0 5.8516-0.83594 9.1953 7.5234 1.6719 13.375 5.8516 17.555 11.703z"></path>  <path d="m614.96 263.29c-53.496-53.492-121.2-88.598-193.91-102.81-10.867 10.867-13.375 19.223-25.074 20.895 1.6719 5.8516 1.6719 12.539-1.6719 18.387-5.0156 10.031-9.1953 20.059-11.703 30.09-1.6719 5.8516-5.8516 11.703-10.867 14.207 4.1797 5.0156 5.8516 10.867 5.0156 17.551-2.5078 21.73-0.83594 73.551-1.6719 95.285 0 14.207-11.703 25.074-25.074 25.074-14.207 0-25.074-10.867-25.074-25.074l0.003906-94.441c-0.83594-4.1797 0-12.539 5.0156-18.387-5.0156-3.3438-9.1953-8.3594-10.867-14.207-3.3438-10.867-6.6875-20.895-11.703-30.09-3.3438-5.8516-3.3438-12.539-1.6719-18.387-5.8516-0.83594-11.703-4.1797-15.879-9.1953-3.3438-4.1797-6.6875-7.5234-10.031-11.703-72.715 14.207-140.42 49.312-193.91 102.8-1.6719 1.6719-2.5078 4.1797-2.5078 5.8516 0 2.5078 0.83594 4.1797 2.5078 5.8516l162.98 155.46c1.6719 1.6719 3.3438 2.5078 5.8516 2.5078 1.6719 0 3.3438-0.83594 4.1797-1.6719 7.5234-5.0156 15.879-9.1953 23.402-13.375l-135.4-128.71c-10.027-9.1953-10.027-25.074-0.83594-35.105 9.1953-10.031 25.074-10.867 35.105-0.83594l157.97 150.45c31.762-1.6719 64.359 8.3594 96.957 28.418 3.3438 1.6719 7.5234 1.6719 10.031-0.83594l168.84-155.46c1.6719-1.6719 2.5078-3.3438 2.5078-5.8516-0.003906-2.5078-0.83984-5.0117-2.5078-6.6836z"></path>  <path d="m170.3 264.96c-3.3438-3.3438-8.3594-3.3438-11.703 0s-3.3438 8.3594 0 11.703l216.48 206.45c3.3438 3.3438 8.3594 3.3438 11.703 0s3.3438-8.3594 0-11.703z"></path>  <path d="m524.69 91.105c5.8516-0.83594 12.539-0.83594 19.223-0.83594 5.0156 0 8.3594-3.3438 8.3594-8.3594s-3.3438-8.3594-8.3594-8.3594c-6.6875 0-13.375 0-20.895 0.83594-4.1797 0.83594-8.3594 4.1797-7.5234 9.1953 0.83594 5.0156 5.0156 8.3594 9.1953 7.5234z"></path>  <path d="m334.12 224.84c1.6719 4.1797 5.8516 6.6875 10.031 5.8516 2.5078-0.83594 4.1797-2.5078 5.0156-5.0156 0.83594 2.5078 2.5078 4.1797 5.0156 5.0156 4.1797 1.6719 9.1953-1.6719 10.031-5.8516 3.3438-11.703 7.5234-22.566 13.375-33.434 2.5078-4.1797 0.83594-9.1953-3.3438-10.867-4.1797-2.5078-9.1953-0.83594-10.867 3.3438-5.8516 11.703-10.867 23.402-14.207 35.105-3.3438-11.703-8.3594-24.238-14.207-35.105-2.5078-4.1797-7.5234-5.8516-10.867-3.3438-4.1797 2.5078-5.8516 7.5234-3.3438 10.867 5.8438 10.867 10.023 21.73 13.367 33.434z"></path>  <path d="m349.16 365.25c5.0156 0 8.3594-3.3438 8.3594-8.3594 0-35.105-0.83594-76.059 1.6719-96.957 0.83594-5.0156-3.3438-9.1953-9.1953-9.1953-5.8516-0.83594-9.1953 4.1797-9.1953 9.1953v96.957c0 5.0156 4.1797 8.3594 8.3594 8.3594z"></path>  <path d="m398.48 161.31c7.5234-9.1953 15.879-18.387 24.238-25.91 3.3438-3.3438 4.1797-8.3594 0.83594-11.703s-8.3594-4.1797-11.703-0.83594c-10.031 8.3594-18.387 18.387-26.746 28.418-2.5078 3.3438-2.5078 9.1953 1.6719 11.703 3.3477 3.3438 8.3594 2.5078 11.703-1.6719z"></path>  <path d="m451.13 114.51c10.031-5.8516 20.895-10.867 32.598-15.043 4.1797-1.6719 6.6875-5.8516 5.0156-10.867-1.6719-4.1797-5.8516-6.6875-10.867-5.0156-12.539 4.1797-24.238 9.1953-35.105 15.879-4.1797 2.5078-5.0156 7.5234-3.3438 11.703 3.3477 5.0156 8.3633 5.8516 11.703 3.3438z"></path>  <path d="m156.09 90.27c6.6875 0 12.539 0 19.223 0.83594 4.1797 0.83594 8.3594-2.5078 9.1953-7.5234 0.83594-4.1797-2.5078-8.3594-7.5234-9.1953-6.6875-0.83594-13.375-0.83594-20.895-0.83594-5.0156 0-8.3594 3.3438-8.3594 8.3594s4.1797 8.3594 8.3594 8.3594z"></path>  <path d="m301.52 161.31c2.5078 3.3438 8.3594 4.1797 11.703 1.6719s4.1797-8.3594 1.6719-11.703c-8.3594-10.031-16.715-20.059-26.746-28.418-3.3438-3.3438-8.3594-2.5078-11.703 0.83594s-2.5078 8.3594 0.83594 11.703c9.1914 8.3594 17.551 16.719 24.238 25.91z"></path>  <path d="m216.27 100.3c10.867 4.1797 21.73 9.1953 32.598 15.043 4.1797 2.5078 9.1953 0.83594 11.703-3.3438 2.5078-4.1797 0.83594-9.1953-3.3438-11.703-10.867-6.6875-23.402-11.703-35.105-15.879-4.1797-1.6719-9.1953 0.83594-10.867 5.0156-1.6719 4.1836 0.83594 9.1953 5.0156 10.867z"></path>  <use x="70" y="685.375" xlink:href="#r"></use>  <use x="100.667969" y="685.375" xlink:href="#f"></use>  <use x="121.28125" y="685.375" xlink:href="#e"></use>  <use x="149.625" y="685.375" xlink:href="#i"></use>  <use x="177.824219" y="685.375" xlink:href="#a"></use>  <use x="197.800781" y="685.375" xlink:href="#e"></use>  <use x="226.144531" y="685.375" xlink:href="#h"></use>  <use x="270.609375" y="685.375" xlink:href="#d"></use>  <use x="300.523438" y="685.375" xlink:href="#c"></use>  <use x="342.316406" y="685.375" xlink:href="#b"></use>  <use x="372.945312" y="685.375" xlink:href="#f"></use>  <use x="393.554687" y="685.375" xlink:href="#g"></use>  <use x="422.265625" y="685.375" xlink:href="#q"></use>  <use x="452.363281" y="685.375" xlink:href="#c"></use>  <use x="479.605469" y="685.375" xlink:href="#p"></use>  <use x="523.152344" y="685.375" xlink:href="#d"></use>  <use x="553.066406" y="685.375" xlink:href="#g"></use>  <use x="581.777344" y="685.375" xlink:href="#o"></use>  <use x="596.101562" y="685.375" xlink:href="#n"></use>  <use x="70" y="727.164063" xlink:href="#m"></use>  <use x="195.597656" y="727.164063" xlink:href="#a"></use>  <use x="215.574219" y="727.164063" xlink:href="#l"></use>  <use x="288.21875" y="727.164063" xlink:href="#k"></use>  <use x="425.957031" y="727.164063" xlink:href="#b"></use>  <use x="505.910156" y="727.164063" xlink:href="#j"></use>  <use x="573.347656" y="727.164063" xlink:href="#a"></use> </g></svg>